<?xml version="1.0" encoding="UTF-8" standalone="no"?>
<!-- Created with Inkscape (http://www.inkscape.org/) -->

<svg
   width="24"
   height="24"
   viewBox="0 0 24 24"
   version="1.1"
   id="svg1"
   inkscape:export-filename="loop.svg"
   inkscape:export-xdpi="96"
   inkscape:export-ydpi="96"
   xmlns:inkscape="http://www.inkscape.org/namespaces/inkscape"
   xmlns:sodipodi="http://sodipodi.sourceforge.net/DTD/sodipodi-0.dtd"
   xmlns="http://www.w3.org/2000/svg"
   xmlns:svg="http://www.w3.org/2000/svg">
  <sodipodi:namedview
     id="namedview1"
     pagecolor="#505050"
     bordercolor="#eeeeee"
     borderopacity="1"
     inkscape:showpageshadow="0"
     inkscape:pageopacity="0"
     inkscape:pagecheckerboard="0"
     inkscape:deskcolor="#505050"
     inkscape:document-units="px"
     showgrid="true">
    <inkscape:grid
       id="grid1"
       units="px"
       originx="0"
       originy="0"
       spacingx="2"
       spacingy="2"
       empcolor="#0099e5"
       empopacity="0.30196078"
       color="#0099e5"
       opacity="0.14901961"
       empspacing="5"
       enabled="true"
       visible="true"
       dotted="false" />
    <inkscape:page
       x="0"
       y="0"
       width="24"
       height="24"
       id="page2"
       margin="0"
       bleed="0" />
  </sodipodi:namedview>
  <defs
     id="defs1" />
  <g
     inkscape:label="Warstwa 1"
     inkscape:groupmode="layer"
     id="layer1">
    <path
       id="path3"
       style="fill:#ffffff;stroke-width:1.15289"
       d="m 10.082031,2 a 8,8 0 0 0 -7.9999998,8 8,8 0 0 0 7.9999998,8 8,8 0 0 0 8,-8 8,8 0 0 0 -8,-8 z m 0,2.5 a 5.5,5.5 0 0 1 5.5,5.5 5.5,5.5 0 0 1 -5.5,5.5 A 5.5,5.5 0 0 1 4.5820312,10 5.5,5.5 0 0 1 10.082031,4.5 Z" />
    <rect
       style="fill:#ffffff;stroke-width:1.00626"
       id="rect4"
       width="10"
       height="2"
       x="-30.463818"
       y="-1.0000004"
       transform="rotate(-135)"
       ry="0.57343346"
       rx="0" />
  </g>
</svg>
