<?xml version="1.0" encoding="UTF-8" standalone="no"?>
<!-- Created with Inkscape (http://www.inkscape.org/) -->

<svg
   width="32"
   height="32"
   viewBox="0 0 8.4666662 8.4666662"
   version="1.1"
   id="svg1"
   inkscape:version="1.4 (86a8ad7, 2024-10-11)"
   sodipodi:docname="sett.svg"
   xmlns:inkscape="http://www.inkscape.org/namespaces/inkscape"
   xmlns:sodipodi="http://sodipodi.sourceforge.net/DTD/sodipodi-0.dtd"
   xmlns="http://www.w3.org/2000/svg"
   xmlns:svg="http://www.w3.org/2000/svg">
  <sodipodi:namedview
     id="namedview1"
     pagecolor="#505050"
     bordercolor="#eeeeee"
     borderopacity="1"
     inkscape:showpageshadow="0"
     inkscape:pageopacity="0"
     inkscape:pagecheckerboard="0"
     inkscape:deskcolor="#505050"
     inkscape:document-units="px"
     showgrid="true"
     inkscape:zoom="22.627417"
     inkscape:cx="14.805048"
     inkscape:cy="15.578446"
     inkscape:window-width="2560"
     inkscape:window-height="1369"
     inkscape:window-x="-8"
     inkscape:window-y="-8"
     inkscape:window-maximized="1"
     inkscape:current-layer="layer1">
    <inkscape:grid
       id="grid1"
       units="px"
       originx="0"
       originy="0"
       spacingx="0.26458332"
       spacingy="0.26458332"
       empcolor="#0099e5"
       empopacity="0.30196078"
       color="#0099e5"
       opacity="0.14901961"
       empspacing="5"
       enabled="true"
       visible="true" />
    <inkscape:page
       x="0"
       y="0"
       width="8.4666662"
       height="8.4666662"
       id="page2"
       margin="0"
       bleed="0" />
  </sodipodi:namedview>
  <defs
     id="defs1" />
  <g
     inkscape:label="Warstwa 1"
     inkscape:groupmode="layer"
     id="layer1">
    <path
       id="rect7"
       style="fill:#ececec;stroke-width:0.267705"
       d="m 0.52916664,-3.8953693 c 0,0.2526399 0.20314625,0.4557862 0.45578611,0.4557862 H 1.4350544 a 2.9104166,2.9104166 0 0 0 0.2619995,0.6196003 l -0.3219441,0.3219442 c -0.1786434,0.1786434 -0.1786434,0.4662785 0,0.6449218 l 0.478007,0.478007 c 0.1786433,0.1786434 0.4662784,0.1786434 0.6449218,0 l 0.3219442,-0.3219441 a 2.9104166,2.9104166 0 0 0 0.6196003,0.2619995 v 0.45010165 c 0,0.25263986 0.2031463,0.45578611 0.4557862,0.45578611 h 0.6759276 c 0.2526399,0 0.4557862,-0.20314625 0.4557862,-0.45578611 V -1.4350544 a 2.9104166,2.9104166 0 0 0 0.6196003,-0.2619995 l 0.3219442,0.3219441 c 0.1786434,0.1786434 0.4662785,0.1786434 0.6449218,0 l 0.478007,-0.478007 c 0.1786434,-0.1786433 0.1786434,-0.4662784 0,-0.6449218 L 6.7696123,-2.8199828 a 2.9104166,2.9104166 0 0 0 0.2619995,-0.6196003 h 0.4501017 c 0.2526398,0 0.4557861,-0.2031463 0.4557861,-0.4557862 v -0.6759276 c 0,-0.2526399 -0.2031463,-0.4557862 -0.4557861,-0.4557862 H 7.0316118 A 2.9104166,2.9104166 0 0 0 6.7696123,-5.6466834 l 0.3219441,-0.3219442 c 0.1786434,-0.1786434 0.1786434,-0.4662785 0,-0.6449218 l -0.478007,-0.478007 c -0.1786433,-0.1786434 -0.4662784,-0.1786434 -0.6449218,0 L 5.6466834,-6.7696123 A 2.9104166,2.9104166 0 0 0 5.0270831,-7.0316118 v -0.4501017 c 0,-0.2526398 -0.2031463,-0.4557861 -0.4557862,-0.4557861 H 3.8953693 c -0.2526399,0 -0.4557862,0.2031463 -0.4557862,0.4557861 v 0.449585 A 2.9104166,2.9104166 0 0 0 2.8153319,-6.7742631 L 2.4980386,-7.0915564 c -0.1786434,-0.1786434 -0.4662785,-0.1786434 -0.6449218,0 l -0.478007,0.478007 c -0.1786434,0.1786433 -0.1786434,0.4662784 0,0.6449218 l 0.3172933,0.3172933 A 2.9104166,2.9104166 0 0 0 1.4345377,-5.0270831 H 0.98495275 c -0.25263986,0 -0.45578611,0.2031463 -0.45578611,0.4557862 z M 2.6458332,-4.2333331 A 1.5874999,1.5874999 0 0 1 4.2333331,-5.820833 1.5874999,1.5874999 0 0 1 5.820833,-4.2333331 1.5874999,1.5874999 0 0 1 4.2333331,-2.6458332 1.5874999,1.5874999 0 0 1 2.6458332,-4.2333331 Z"
       transform="rotate(90)" />
  </g>
</svg>
